#N canvas 559 76 567 462 12;
#X msg 20 210 57;
#X msg 20 240 60;
#X msg 20 270 62;
#X msg 20 300 64;
#X msg 20 330 67;
#X msg 20 360 69;
#X obj 120 260 mtof;
#X obj 120 290 osc~;
#X obj 160 340 *~;
#X obj 240 410 voutput~;
#X floatatom 200 240 5 0 0 0 - - -, f 5;
#X obj 40 170 sel 0 1 2 3 4 5;
#X obj 30 20 mrpeach/udpreceive 9001;
#X obj 30 50 mrpeach/unpackOSC;
#X obj 40 90 mrpeach/routeOSC /note;
#X obj 40 130 unpack i;
#X obj 380 90 mrpeach/routeOSC /sote;
#X obj 300 130 unpack i;
#X msg 510 360 57;
#X msg 510 330 60;
#X msg 510 300 62;
#X msg 510 270 64;
#X msg 510 240 67;
#X msg 513 212 69;
#X obj 333 172 sel 0 1 2 3 4 5;
#X obj 300 170 * 0;
#X obj 380 260 mtof;
#X obj 380 290 phasor~;
#X floatatom 300 230 5 0 0 0 - - -, f 5;
#X obj 330 310 *~;
#X obj 160 170 * 0;
#X obj 150 210 + 1;
#X obj 300 200 + 0.5;
#X obj 210 90 mrpeach/routeOSC /mute;
#X floatatom 190 140 5 0 0 0 - - -, f 5;
#X floatatom 250 140 5 0 0 0 - - -, f 5;
#X connect 0 0 6 0;
#X connect 1 0 6 0;
#X connect 2 0 6 0;
#X connect 3 0 6 0;
#X connect 4 0 6 0;
#X connect 5 0 6 0;
#X connect 6 0 7 0;
#X connect 7 0 8 0;
#X connect 8 0 9 0;
#X connect 8 0 9 1;
#X connect 10 0 8 1;
#X connect 11 0 0 0;
#X connect 11 1 1 0;
#X connect 11 2 2 0;
#X connect 11 3 3 0;
#X connect 11 4 4 0;
#X connect 11 6 5 0;
#X connect 12 0 13 0;
#X connect 13 0 14 0;
#X connect 13 0 16 0;
#X connect 13 0 33 0;
#X connect 14 0 15 0;
#X connect 15 0 11 0;
#X connect 15 0 30 0;
#X connect 16 0 17 0;
#X connect 17 0 24 0;
#X connect 17 0 25 0;
#X connect 18 0 26 0;
#X connect 19 0 26 0;
#X connect 20 0 26 0;
#X connect 21 0 26 0;
#X connect 22 0 26 0;
#X connect 23 0 26 0;
#X connect 24 0 18 0;
#X connect 24 1 19 0;
#X connect 24 2 20 0;
#X connect 24 3 21 0;
#X connect 24 4 22 0;
#X connect 24 6 23 0;
#X connect 25 0 10 0;
#X connect 25 0 32 0;
#X connect 26 0 27 0;
#X connect 27 0 29 0;
#X connect 28 0 29 1;
#X connect 29 0 9 0;
#X connect 29 0 9 1;
#X connect 30 0 31 0;
#X connect 30 0 28 0;
#X connect 31 0 10 0;
#X connect 32 0 28 0;
#X connect 33 0 34 0;
#X connect 33 0 35 0;
#X connect 34 0 10 0;
#X connect 35 0 28 0;
